<svg xmlns="http://www.w3.org/2000/svg" width="929" height="692.216" viewBox="0 0 929 692.216">
  <g id="Segment-rafiki" transform="translate(0 -55)">
    <g id="freepik--background-complete--inject-39" transform="translate(0 55)">
      <rect id="Rectángulo_23" data-name="Rectángulo 23" width="929" height="0.465" transform="translate(0 608.309)" fill="#e6e6e6"/>
      <rect id="Rectángulo_24" data-name="Rectángulo 24" width="102.432" height="0.465" transform="translate(156.072 629.658)" fill="#e6e6e6"/>
      <rect id="Rectángulo_25" data-name="Rectángulo 25" width="11.687" height="0.465" transform="translate(124.282 629.881)" fill="#e6e6e6"/>
      <rect id="Rectángulo_26" data-name="Rectángulo 26" width="21.776" height="0.465" transform="translate(434.14 621.743)" fill="#e6e6e6"/>
      <rect id="Rectángulo_27" data-name="Rectángulo 27" width="119.767" height="0.465" transform="translate(466.618 621.743)" fill="#e6e6e6"/>
      <rect id="Rectángulo_28" data-name="Rectángulo 28" width="78.036" height="0.465" transform="translate(679.229 630.345)" fill="#e6e6e6"/>
      <rect id="Rectángulo_29" data-name="Rectángulo 29" width="24.804" height="0.465" transform="translate(644.113 630.345)" fill="#e6e6e6"/>
      <rect id="Rectángulo_30" data-name="Rectángulo 30" width="66.163" height="0.465" transform="translate(776.012 621.966)" fill="#e6e6e6"/>
      <path id="Trazado_51" data-name="Trazado 51" d="M407.562,580.442H48.8A10.609,10.609,0,0,1,38.21,569.833V65.516A10.609,10.609,0,0,1,48.8,55H407.562a10.609,10.609,0,0,1,10.609,10.609V569.833A10.609,10.609,0,0,1,407.562,580.442ZM48.8,55.372A10.145,10.145,0,0,0,38.674,65.516V569.833A10.145,10.145,0,0,0,48.8,579.978H407.562a10.163,10.163,0,0,0,10.145-10.145V65.516a10.163,10.163,0,0,0-10.145-10.145Z" transform="translate(32.784 -55)" fill="#e6e6e6"/>
      <path id="Trazado_52" data-name="Trazado 52" d="M623.889,580.442H265.109A10.628,10.628,0,0,1,254.5,569.833V65.516A10.628,10.628,0,0,1,265.109,55h358.78a10.609,10.609,0,0,1,10.572,10.516V569.833A10.609,10.609,0,0,1,623.889,580.442ZM265.109,55.372a10.163,10.163,0,0,0-10.145,10.145V569.833a10.163,10.163,0,0,0,10.145,10.145h358.78a10.163,10.163,0,0,0,10.145-10.145V65.516a10.163,10.163,0,0,0-10.145-10.145Z" transform="translate(218.361 -55)" fill="#e6e6e6"/>
      <rect id="Rectángulo_31" data-name="Rectángulo 31" width="456.919" height="295.05" transform="translate(822.704 329.665) rotate(180)" fill="#e0e0e0"/>
      <rect id="Rectángulo_32" data-name="Rectángulo 32" width="460.58" height="295.05" transform="translate(819.489 329.665) rotate(180)" fill="#f5f5f5"/>
      <rect id="Rectángulo_33" data-name="Rectángulo 33" width="456.919" height="6.633" transform="translate(822.704 336.298) rotate(180)" fill="#ebebeb"/>
      <rect id="Rectángulo_34" data-name="Rectángulo 34" width="445.53" height="6.633" transform="translate(772.965 336.298) rotate(180)" fill="#f5f5f5"/>
      <rect id="Rectángulo_35" data-name="Rectángulo 35" width="270.023" height="441.312" transform="translate(809.846 47.119) rotate(90)" fill="#fafafa"/>
      <path id="Trazado_53" data-name="Trazado 53" d="M437.434,350.375l-56.557-270H308.73l56.539,270Z" transform="translate(264.89 -33.233)" fill="#fff"/>
      <path id="Trazado_54" data-name="Trazado 54" d="M369.759,350.375,313.2,80.37H279.72l56.558,270Z" transform="translate(240 -33.233)" fill="#fff"/>
      <rect id="Rectángulo_36" data-name="Rectángulo 36" width="243.454" height="1.226" transform="translate(369.761 45.447) rotate(90)" fill="#d4e1fd"/>
      <path id="Trazado_55" data-name="Trazado 55" d="M487.936,78.509V183.486h-27.87s-49.924-32.571-61.314-99.57A11.148,11.148,0,0,1,409.714,70.91h70.6a7.562,7.562,0,0,1,7.618,7.6Z" transform="translate(341.995 -41.349)" fill="#e6e6e6"/>
      <path id="Trazado_56" data-name="Trazado 56" d="M476.682,294.418V134.5h-27.87s-15.979,32.292-31.9,69.415a65.03,65.03,0,0,0,59.7,90.5Z" transform="translate(353.25 13.211)" fill="#e6e6e6"/>
      <rect id="Rectángulo_37" data-name="Rectángulo 37" width="31.53" height="8.472" rx="1.5" transform="translate(831.697 147.711) rotate(180)" fill="#f5f5f5"/>
      <path id="Trazado_57" data-name="Trazado 57" d="M188.93,78.509V183.486H216.8s49.943-32.571,61.314-99.57A11.148,11.148,0,0,0,267.152,70.91h-70.66a7.562,7.562,0,0,0-7.562,7.6Z" transform="translate(162.102 -41.349)" fill="#e6e6e6"/>
      <path id="Trazado_58" data-name="Trazado 58" d="M188.93,294.418V134.5H216.8s15.979,32.292,31.92,69.415A65.03,65.03,0,0,1,189,294.418Z" transform="translate(162.102 13.211)" fill="#e6e6e6"/>
      <rect id="Rectángulo_38" data-name="Rectángulo 38" width="31.53" height="8.472" rx="1.5" transform="translate(349.267 139.239)" fill="#f5f5f5"/>
      <rect id="Rectángulo_39" data-name="Rectángulo 39" width="108.284" height="161.739" transform="translate(251.295 240.723) rotate(180)" fill="#e6e6e6"/>
      <rect id="Rectángulo_40" data-name="Rectángulo 40" width="121.179" height="161.739" transform="translate(248.507 240.723) rotate(180)" fill="#f0f0f0"/>
      <rect id="Rectángulo_41" data-name="Rectángulo 41" width="136.749" height="96.189" transform="translate(236.022 91.488) rotate(90)" fill="#fff"/>
      <path id="Trazado_59" data-name="Trazado 59" d="M129.688,181.628v-16.48A39.018,39.018,0,0,0,90.67,126.13h0v16.48A39.018,39.018,0,0,0,129.688,181.628Z" transform="translate(77.795 6.03)" fill="#e6e6e6"/>
      <rect id="Rectángulo_42" data-name="Rectángulo 42" width="79.727" height="189.07" transform="translate(433.267 608.309) rotate(180)" fill="#e0e0e0"/>
      <path id="Trazado_60" data-name="Trazado 60" d="M211.573,398.874H190.28V363.2h43.626Z" transform="translate(163.26 209.436)" fill="#fafafa"/>
      <rect id="Rectángulo_43" data-name="Rectángulo 43" width="79.727" height="189.07" transform="translate(834.948 608.309) rotate(180)" fill="#ebebeb"/>
      <rect id="Rectángulo_44" data-name="Rectángulo 44" width="420.242" height="176.789" transform="translate(773.783 596.028) rotate(180)" fill="#fafafa"/>
      <path id="Trazado_61" data-name="Trazado 61" d="M415.315,398.874h21.293V363.2H393Z" transform="translate(337.194 209.436)" fill="#fafafa"/>
      <rect id="Rectángulo_45" data-name="Rectángulo 45" width="387.226" height="61.611" transform="translate(757.284 498.297) rotate(180)" fill="#ebebeb"/>
      <rect id="Rectángulo_46" data-name="Rectángulo 46" width="387.226" height="61.611" transform="translate(757.284 577.968) rotate(180)" fill="#ebebeb"/>
      <rect id="Rectángulo_47" data-name="Rectángulo 47" width="319.242" height="61.611" transform="translate(757.265 498.297) rotate(180)" fill="#e0e0e0"/>
      <path id="Trazado_62" data-name="Trazado 62" d="M276.343,299.11H257.28c-10.7,15.7-15.9,44.741,9.532,44.741S287.064,314.81,276.343,299.11Z" transform="translate(213.166 154.446)" fill="#f5f5f5"/>
      <path id="Trazado_63" data-name="Trazado 63" d="M364.65,245.77h34.336s-5.964,14.437-5.964,22.946,26.1,41.824-11.148,41.824-11.148-33.314-11.148-41.824S364.65,245.77,364.65,245.77Z" transform="translate(310.454 108.681)" fill="#ebebeb"/>
      <path id="Trazado_64" data-name="Trazado 64" d="M384.519,270.33c0,10.535-18.115,19.137-40.263,19.137H324.283c-22.147,0-40.263-8.6-40.263-19.137Z" transform="translate(243.689 129.753)" fill="#f0f0f0"/>
      <path id="Trazado_65" data-name="Trazado 65" d="M363.873,312.89c0,10.535-12.207,19.137-27.127,19.137H323.257c-14.864,0-27.127-8.6-27.127-19.137Z" transform="translate(254.079 166.27)" fill="#f5f5f5"/>
      <path id="Trazado_66" data-name="Trazado 66" d="M363.873,306.61c0,10.535-12.207,19.137-27.127,19.137H323.257c-14.864,0-27.127-8.6-27.127-19.137Z" transform="translate(254.079 160.881)" fill="#f5f5f5"/>
      <rect id="Rectángulo_48" data-name="Rectángulo 48" width="319.242" height="61.611" transform="translate(757.265 577.968) rotate(180)" fill="#e0e0e0"/>
      <path id="Trazado_67" data-name="Trazado 67" d="M325.733,355.77c0,10.516-12.207,19.137-27.127,19.137H285.135c-14.864,0-27.145-8.621-27.145-19.137Z" transform="translate(221.355 203.061)" fill="#f5f5f5"/>
      <path id="Trazado_68" data-name="Trazado 68" d="M325.733,349.49c0,10.535-12.207,19.137-27.127,19.137H285.135c-14.864,0-27.145-8.6-27.145-19.137Z" transform="translate(221.355 197.672)" fill="#f5f5f5"/>
      <path id="Trazado_69" data-name="Trazado 69" d="M412.581,355.77c0,10.516-12.226,19.137-27.145,19.137h-13.47c-14.864,0-27.145-8.621-27.145-19.137Z" transform="translate(295.856 203.061)" fill="#f5f5f5"/>
      <path id="Trazado_70" data-name="Trazado 70" d="M412.581,349.49c0,10.535-12.226,19.137-27.145,19.137h-13.47c-14.864,0-27.145-8.6-27.145-19.137Z" transform="translate(295.856 197.672)" fill="#f5f5f5"/>
      <path id="Trazado_71" data-name="Trazado 71" d="M117.671,463.043c-4.7-48.605-8.918-184.369-6.169-208.746l6.5-4.756s-1.988,88.664,1.5,163.114.5,39.315,1.969,50.389Z" transform="translate(94.921 111.915)" fill="#e0e0e0"/>
      <path id="Trazado_72" data-name="Trazado 72" d="M136.445,320.527c-13.1-10.293-39.891-17.614-67.167-17.577-10.721.093,32.515,11.984,50.593,25.176,13.991,10.256,29.728,27.5,35.135,37.067C151.532,345.052,149.562,330.913,136.445,320.527Z" transform="translate(57.995 157.741)" fill="#e0e0e0"/>
      <path id="Trazado_73" data-name="Trazado 73" d="M123.045,329.792c10.888-10.721,36.008-18.952,63.172-19.9,10.665-.353-29.951,13.1-45.094,26.885-11.78,10.721-23.857,28.446-27.183,38.182C113.179,354.69,112.157,340.513,123.045,329.792Z" transform="translate(97.388 163.693)" fill="#e0e0e0"/>
      <path id="Trazado_74" data-name="Trazado 74" d="M131.268,280.194C120.12,271.48,97.49,265.33,74.377,265.33c-9.067,0,27.61,10.145,42.845,21.33,11.854,8.677,25.213,23.281,29.728,31.382C144.033,300.966,142.361,288.871,131.268,280.194Z" transform="translate(62.595 125.463)" fill="#e0e0e0"/>
      <path id="Trazado_75" data-name="Trazado 75" d="M119.9,288.055c9.29-9.086,30.49-16.053,53.529-16.852,9.03-.3-25.362,11.148-38.2,22.76-9.959,9.067-20.178,24.154-23,32.329C111.559,309.2,110.685,297.14,119.9,288.055Z" transform="translate(95.962 130.497)" fill="#e0e0e0"/>
      <path id="Trazado_76" data-name="Trazado 76" d="M115.6,251.613c6.559-7.432,22.445-13.693,40-15.31,6.893-.65-18.784,9.624-27.963,19.175C120.5,262.91,113.5,274.894,111.79,281.36,110.359,268.243,109.04,258.99,115.6,251.613Z" transform="translate(94.913 100.533)" fill="#e0e0e0"/>
      <path id="Trazado_77" data-name="Trazado 77" d="M124.468,253.4c-4.738-6.373-16-11.91-28.353-13.452-4.849-.613,13.359,8.417,19.974,16.722a70.6,70.6,0,0,1,11.613,22.3C128.444,267.665,129.187,259.769,124.468,253.4Z" transform="translate(81.77 103.656)" fill="#e0e0e0"/>
      <path id="Trazado_78" data-name="Trazado 78" d="M128.505,404.734h0a27.108,27.108,0,0,1-27.052-25.548L99,356.37h58.9l-2.378,22.816A27.127,27.127,0,0,1,128.505,404.734Z" transform="translate(84.942 203.575)" fill="#f0f0f0"/>
      <path id="Trazado_79" data-name="Trazado 79" d="M164.4,369.411H97.864L95.95,352.15h70.344Z" transform="translate(82.325 199.955)" fill="#ebebeb"/>
    </g>
    <g id="freepik--Shadow--inject-39" transform="translate(104.252 705.151)">
      <ellipse id="Elipse_5" data-name="Elipse 5" cx="360.248" cy="21.033" rx="360.248" ry="21.033" fill="#f5f5f5"/>
    </g>
    <g id="freepik--Character--inject-39" transform="translate(152.672 156.112)">
      <path id="Trazado_80" data-name="Trazado 80" d="M370.943,191.259c-.948,2.806-1.858,5.221-2.861,7.766s-2.044,5-3.121,7.432c-2.174,4.961-4.589,9.81-7.209,14.6a139.508,139.508,0,0,1-8.807,14.084,83.151,83.151,0,0,1-11.52,13.155c-1.152,1.022-2.323,2.044-3.623,2.991-.687.5-1.189.929-2.025,1.468s-1.635,1.022-2.508,1.486a24.153,24.153,0,0,1-11.687,2.806,27.442,27.442,0,0,1-10.795-2.453,40.653,40.653,0,0,1-8.231-5.017A66.107,66.107,0,0,1,286.627,237.1c-1.691-2.192-3.2-4.515-4.645-6.837a78.907,78.907,0,0,1-4.032-7.246l8.64-5.37c1.486,1.728,3.2,3.716,4.868,5.425s3.437,3.474,5.184,5.128a63.283,63.283,0,0,0,10.906,8.4c3.716,2.155,7.432,3.233,9.68,2.861a7.431,7.431,0,0,0,3.121-1.226l.78-.595c.223-.167.687-.613,1.04-.892.743-.632,1.486-1.375,2.211-2.118a99.834,99.834,0,0,0,15.347-23.169c2.248-4.329,4.292-8.807,6.3-13.322.985-2.248,1.951-4.534,2.861-6.819s1.858-4.664,2.638-6.745Z" transform="translate(85.809 -44.941)" fill="#e4897b"/>
      <path id="Trazado_81" data-name="Trazado 81" d="M353.926,189.846c2.9,12.616-24.767,44.871-24.767,44.871l-24.879-18.1A165.119,165.119,0,0,1,324.012,187.3C335.346,174.35,350.73,176,353.926,189.846Z" transform="translate(108.4 -50.18)" fill="#407bff"/>
      <path id="Trazado_82" data-name="Trazado 82" d="M353.926,189.846c2.9,12.616-24.767,44.871-24.767,44.871l-24.879-18.1A165.119,165.119,0,0,1,324.012,187.3C335.346,174.35,350.73,176,353.926,189.846Z" transform="translate(108.4 -50.18)" fill="#fff" opacity="0.7"/>
      <path id="Trazado_83" data-name="Trazado 83" d="M406.258,188.419a304.278,304.278,0,0,0-11.445,43.886c-1.951,10.386-3.363,20.327-4.422,29.357-2.49,21.163-3.066,37.383-4.05,42.827l-71.756-9.662c-4.868-77.479,16.425-115.865,16.425-115.865A141.4,141.4,0,0,1,348.4,177.94c1.226,0,2.471,0,3.716.093a266.928,266.928,0,0,1,30.508,4.106c1.858.353,3.846.762,5.723,1.189A179.884,179.884,0,0,1,406.258,188.419Z" transform="translate(116.621 -50.63)" fill="#407bff"/>
      <path id="Trazado_84" data-name="Trazado 84" d="M406.258,188.419a304.278,304.278,0,0,0-11.445,43.886c-1.951,10.386-3.363,20.327-4.422,29.357-2.49,21.163-3.066,37.383-4.05,42.827l-71.756-9.662c-4.868-77.479,16.425-115.865,16.425-115.865A141.4,141.4,0,0,1,348.4,177.94c1.226,0,2.471,0,3.716.093a266.928,266.928,0,0,1,30.508,4.106c1.858.353,3.846.762,5.723,1.189A179.884,179.884,0,0,1,406.258,188.419Z" transform="translate(116.621 -50.63)" fill="#fff" opacity="0.7"/>
      <path id="Trazado_85" data-name="Trazado 85" d="M363.951,207.2c-1.951,10.386-3.363,20.327-4.422,29.356l-9.7-22.407Z" transform="translate(147.482 -25.525)" fill="#407bff"/>
      <path id="Trazado_86" data-name="Trazado 86" d="M363.951,207.2c-1.951,10.386-3.363,20.327-4.422,29.356l-9.7-22.407Z" transform="translate(147.482 -25.525)" fill="#fff" opacity="0.5"/>
      <path id="Trazado_87" data-name="Trazado 87" d="M300.9,419.576l-12.783-4.441,6.856-30.806,12.783,4.441Z" transform="translate(94.535 126.453)" fill="#e4897b"/>
      <path id="Trazado_88" data-name="Trazado 88" d="M372.32,421.693H358.794L348.24,390.33h13.545Z" transform="translate(146.118 131.601)" fill="#e4897b"/>
      <path id="Trazado_89" data-name="Trazado 89" d="M293.449,384.34,289.9,400.207l12.8,4.441,3.53-15.886Z" transform="translate(96.062 126.461)" fill="#ce6f64"/>
      <path id="Trazado_90" data-name="Trazado 90" d="M361.785,390.34H348.24l5.444,16.165h13.545Z" transform="translate(146.118 131.609)" fill="#ce6f64"/>
      <path id="Trazado_91" data-name="Trazado 91" d="M287.87,518.74l21.683,7.432s21.2-83.61,27.87-125.285c2.007-12.672,6.54-30.211,12-48.94,6.875-23.6,15.254-49.051,22.054-68.969,7.19-20.977,12.579-35.8,12.579-35.8l-47.175-6.354S300.95,351,296.9,392.117C292.664,434.925,287.87,518.74,287.87,518.74Z" transform="translate(94.321 3.321)" fill="#407bff"/>
      <path id="Trazado_92" data-name="Trazado 92" d="M287.87,518.74l21.683,7.432s21.2-83.61,27.87-125.285c2.007-12.672,6.54-30.211,12-48.94,6.875-23.6,15.254-49.051,22.054-68.969,7.19-20.977,12.579-35.8,12.579-35.8l-47.175-6.354S300.95,351,296.9,392.117C292.664,434.925,287.87,518.74,287.87,518.74Z" transform="translate(94.321 3.321)" opacity="0.6"/>
      <path id="Trazado_93" data-name="Trazado 93" d="M321.031,337.545c6.875-23.6,15.254-49.051,22.054-68.969l-4.218-10.906C326.215,270.88,320.251,313.912,321.031,337.545Z" transform="translate(122.715 17.779)" opacity="0.4"/>
      <path id="Trazado_94" data-name="Trazado 94" d="M328.318,242.7s-2.323,115.976.855,155.515c3.493,43.291,35.934,131.918,35.934,131.918h24.8s-16.555-81.027-21.627-123.074c-5.778-47.9,6.336-158.041,6.336-158.041Z" transform="translate(128.322 4.934)" fill="#407bff"/>
      <path id="Trazado_95" data-name="Trazado 95" d="M328.318,242.7s-2.323,115.976.855,155.515c3.493,43.291,35.934,131.918,35.934,131.918h24.8s-16.555-81.027-21.627-123.074c-5.778-47.9,6.336-158.041,6.336-158.041Z" transform="translate(128.322 4.934)" opacity="0.6"/>
      <path id="Trazado_96" data-name="Trazado 96" d="M364.507,406.36h16.518a1.189,1.189,0,0,1,1.152.929l2.676,12.04a1.988,1.988,0,0,1-1.988,2.4c-5.314-.093-9.179-.39-15.867-.39-4.125,0-16.536.427-22.2.427s-6.429-5.574-4.106-6.131c10.423-2.285,18.283-5.425,21.627-8.435a3.326,3.326,0,0,1,2.192-.836Z" transform="translate(138.584 145.355)" fill="#263238"/>
      <path id="Trazado_97" data-name="Trazado 97" d="M304.44,400.93l13.972,4.831a1.208,1.208,0,0,1,.8,1.263L317.8,419.269a1.97,1.97,0,0,1-2.638,1.635c-5-1.858-12.189-4.645-18.58-6.837-7.432-2.564-13.935-4.366-22.63-7.432-5.24-1.858-4.868-7.636-2.49-7.432,10.758,1.282,19.007,3.865,29.505,1.524a6.467,6.467,0,0,1,3.474.2Z" transform="translate(78.81 139.209)" fill="#263238"/>
      <path id="Trazado_98" data-name="Trazado 98" d="M288.591,211.9l5.463-13.749-17.279-.595a13.006,13.006,0,0,0,3.344,15.068Z" transform="translate(83.845 -33.796)" fill="#e4897b"/>
      <path id="Trazado_99" data-name="Trazado 99" d="M295.416,192.9l-13.545,2.62-5.611,6.039,17.279.595Z" transform="translate(84.359 -37.794)" fill="#e4897b"/>
      <path id="Trazado_100" data-name="Trazado 100" d="M338.1,223.148a10.85,10.85,0,0,1-7.432-2.991,14.864,14.864,0,0,1-4.255-11.705c.39-8.733,6.782-16.518,14.214-17.335a10.943,10.943,0,0,1,8.807,2.9,14.864,14.864,0,0,1,4.255,11.705c-.39,8.751-6.782,16.536-14.214,17.354A10.376,10.376,0,0,1,338.1,223.148Zm3.716-30.248h-1.078c-6.559.725-12.207,7.729-12.579,15.589a13.006,13.006,0,0,0,3.716,10.256,9.085,9.085,0,0,0,7.339,2.434c6.559-.743,12.207-7.729,12.579-15.589a13.136,13.136,0,0,0-3.716-10.275,9.067,9.067,0,0,0-6.243-2.49Z" transform="translate(127.347 -39.392)" fill="#fafafa"/>
      <path id="Trazado_101" data-name="Trazado 101" d="M367.227,161.49c-3.233,9.569-7.581,27.294-1.6,34.763a30.75,30.75,0,0,1-24.786,6.187c-8.417-1.319-8.045-7.283-5.723-10.293,11.3-1.133,12.114-9.29,11.148-17.186Z" transform="translate(133.634 -64.744)" fill="#e4897b"/>
      <path id="Trazado_102" data-name="Trazado 102" d="M352.866,164.45l-12.356,7.971a32.684,32.684,0,0,1,.2,5.574c4.273,0,10.628-3.865,11.668-8.175a14.641,14.641,0,0,0,.483-5.37Z" transform="translate(139.486 -62.204)" fill="#ce6f64"/>
      <path id="Trazado_103" data-name="Trazado 103" d="M343.381,140.86c-10.479-.855-14.121,24.4-7.581,29.245S363.02,142.458,343.381,140.86Z" transform="translate(132.638 -82.463)" fill="#263238"/>
      <path id="Trazado_104" data-name="Trazado 104" d="M371.816,163.78c-2.6,13.173-3.456,21.033-11.148,26.941-11.482,8.9-27.071.613-28.446-13.006-1.245-12.337,3.233-31.809,16.945-35.3a18.32,18.32,0,0,1,22.649,21.367Z" transform="translate(132.204 -81.638)" fill="#e4897b"/>
      <path id="Trazado_105" data-name="Trazado 105" d="M355.03,174.94c-6.5,4.05-12.746-31.939,5.277-31.1C382.4,144.877,368.835,166.449,355.03,174.94Z" transform="translate(146.314 -79.903)" fill="#263238"/>
      <path id="Trazado_106" data-name="Trazado 106" d="M377.293,157.658c-8.658-4.812-21.59,1.226-30.453-2.991s-24.061-.52-16.926-13.433c2.155,3.716,11.408,3.939,16.22-1.338s11.148-6.8,14.864-1.022,14.028-5.778,22.816,1.654C391.432,146.9,390.355,164.923,377.293,157.658Z" transform="translate(128.808 -87.314)" fill="#263238"/>
      <path id="Trazado_107" data-name="Trazado 107" d="M358.39,147.639s7.841-.26,9.29-4.329C367.773,147.323,365.822,149.962,358.39,147.639Z" transform="translate(154.827 -80.342)" fill="#263238"/>
      <path id="Trazado_108" data-name="Trazado 108" d="M361.8,166.441a12.839,12.839,0,0,1-8.64,4.534c-4.459.353-5.853-3.827-3.9-7.6,1.747-3.4,6.187-7.674,10.312-6.28a5.723,5.723,0,0,1,2.23,9.346Z" transform="translate(146.253 -68.747)" fill="#e4897b"/>
      <path id="Trazado_109" data-name="Trazado 109" d="M347.727,401.93h29.208V393.2l-32.645-.557Z" transform="translate(142.729 133.583)" fill="#407bff"/>
      <path id="Trazado_110" data-name="Trazado 110" d="M286.329,394.7l25.808,8.937,2.88-8.324L286.31,384.87Z" transform="translate(92.982 126.916)" fill="#407bff"/>
      <ellipse id="Elipse_6" data-name="Elipse 6" cx="1.969" cy="1.301" rx="1.969" ry="1.301" transform="translate(480.485 84.722) rotate(-82.33)" fill="#263238"/>
      <path id="Trazado_111" data-name="Trazado 111" d="M336.937,154.267c-.149,1.078-.836,1.858-1.542,1.858s-1.171-1.04-1.022-2.137.836-1.858,1.542-1.858S337.086,153.189,336.937,154.267Z" transform="translate(134.196 -72.775)" fill="#263238"/>
      <path id="Trazado_112" data-name="Trazado 112" d="M340.75,153.85a39.017,39.017,0,0,1-6.41,8.565,6.261,6.261,0,0,0,5.035,1.654Z" transform="translate(134.192 -71.299)" fill="#de5753"/>
      <path id="Trazado_113" data-name="Trazado 113" d="M340.09,162.733a9.551,9.551,0,0,1-1.431-.093.319.319,0,1,1,.093-.632,8.658,8.658,0,0,0,7.432-2.415.334.334,0,0,1,.464,0,.316.316,0,0,1,0,.446,9.122,9.122,0,0,1-6.559,2.694Z" transform="translate(137.658 -66.452)" fill="#263238"/>
      <path id="Trazado_114" data-name="Trazado 114" d="M346.938,154.291a.632.632,0,0,1-.557-.316,5.128,5.128,0,0,0-3.716-2.676.65.65,0,1,1,.093-1.282,6.447,6.447,0,0,1,4.812,3.326.632.632,0,0,1-.242.873.613.613,0,0,1-.39.074Z" transform="translate(140.731 -74.601)" fill="#263238"/>
      <path id="Trazado_115" data-name="Trazado 115" d="M333.506,152.415a.761.761,0,0,1-.353,0,.65.65,0,0,1-.186-.892,6.41,6.41,0,0,1,5.054-2.973.65.65,0,0,1,.632.65.632.632,0,0,1-.632.632h0a5.072,5.072,0,0,0-3.958,2.4A.65.65,0,0,1,333.506,152.415Z" transform="translate(132.926 -75.846)" fill="#263238"/>
      <path id="Trazado_116" data-name="Trazado 116" d="M352.059,409.229a4.087,4.087,0,0,1-2.62-.706,1.858,1.858,0,0,1-.65-1.691,1.022,1.022,0,0,1,.539-.91c1.505-.743,5.871,1.858,6.354,2.23a.335.335,0,0,1,.149.316.3.3,0,0,1-.242.26A14.867,14.867,0,0,1,352.059,409.229Zm-2.025-2.806a.893.893,0,0,0-.409,0c-.093,0-.186.13-.2.372a1.319,1.319,0,0,0,.427,1.171,6.6,6.6,0,0,0,4.812.241,13.008,13.008,0,0,0-4.626-1.784Z" transform="translate(146.573 144.864)" fill="#407bff"/>
      <path id="Trazado_117" data-name="Trazado 117" d="M354.245,410.194H354.1c-1.394-.762-4.106-3.716-3.827-5.24a1.041,1.041,0,0,1,1.022-.836,1.709,1.709,0,0,1,1.375.409c1.561,1.282,1.858,5.184,1.858,5.351a.3.3,0,0,1-.13.3.354.354,0,0,1-.149.019Zm-2.731-5.574h-.149c-.409,0-.446.242-.465.316-.167.892,1.561,3.14,2.954,4.2a7.8,7.8,0,0,0-1.6-4.236,1.114,1.114,0,0,0-.743-.2Z" transform="translate(147.842 143.416)" fill="#407bff"/>
      <path id="Trazado_118" data-name="Trazado 118" d="M290.766,403.219h0c-2.192-.316-6.039-1.078-7-2.806a1.858,1.858,0,0,1,0-1.672,1,1,0,0,1,.762-.632c1.858-.353,6.094,4.069,6.577,4.571a.316.316,0,0,1,0,.353A.335.335,0,0,1,290.766,403.219Zm-6.113-4.478h-.13a.446.446,0,0,0-.3.26,1.152,1.152,0,0,0,0,1.1c.539.985,2.6,1.858,5.574,2.341C288.091,400.766,285.731,398.741,284.654,398.741Z" transform="translate(90.625 138.258)" fill="#407bff"/>
      <path id="Trazado_119" data-name="Trazado 119" d="M288.847,404.1a.316.316,0,0,1-.223-.093c-1.3-1.226-3.4-5.054-2.676-6.41.167-.334.557-.669,1.431-.465a2.323,2.323,0,0,1,1.486,1.1,9.142,9.142,0,0,1,.279,5.574.316.316,0,0,1-.2.223ZM286.9,397.7a.39.39,0,0,0-.39.186c-.427.818.892,3.716,2.137,5.2a7.543,7.543,0,0,0-.316-4.534,1.71,1.71,0,0,0-1.1-.8Z" transform="translate(92.545 137.381)" fill="#407bff"/>
      <path id="Trazado_120" data-name="Trazado 120" d="M403.8,192.832c-.242,2.75-.52,5.184-.892,7.711s-.762,5.017-1.189,7.432c-.892,5-1.951,9.959-3.233,14.864s-2.806,9.847-4.571,14.753l-1.375,3.716-1.561,3.716c-.483,1.208-1.1,2.415-1.691,3.716l-.873,1.858-.223.465-.39.725a16.511,16.511,0,0,1-.929,1.524,27.869,27.869,0,0,1-7.655,7.246,62.256,62.256,0,0,1-7.432,4.162A116.242,116.242,0,0,1,357.3,270.4a192.836,192.836,0,0,1-29.263,6.893l-2.564-9.829c8.807-3.53,17.725-7.32,26.161-11.334a130.947,130.947,0,0,0,12.021-6.447,44.589,44.589,0,0,0,5.017-3.512,11.15,11.15,0,0,0,2.713-2.917h0l.149-.39.595-1.524c.409-1.022.818-2.025,1.152-3.1l1.078-3.159.985-3.233c1.245-4.348,2.378-8.788,3.344-13.322s1.858-9.1,2.6-13.693,1.449-9.29,2.025-13.675Z" transform="translate(126.581 -39.287)" fill="#e4897b"/>
      <path id="Trazado_121" data-name="Trazado 121" d="M385.946,191.458c7.581,10.5-1.171,42.864-1.171,42.864l-35.525,1.133a250.842,250.842,0,0,1,8.138-37.16C363.036,180.942,376.656,178.731,385.946,191.458Z" transform="translate(146.985 -45.995)" fill="#407bff"/>
      <path id="Trazado_122" data-name="Trazado 122" d="M385.946,191.458c7.581,10.5-1.171,42.864-1.171,42.864l-35.525,1.133a250.842,250.842,0,0,1,8.138-37.16C363.036,180.942,376.656,178.731,385.946,191.458Z" transform="translate(146.985 -45.995)" fill="#fff" opacity="0.7"/>
      <path id="Trazado_123" data-name="Trazado 123" d="M349.377,129.1a200.775,200.775,0,0,0-79.615-16.573c-96.616,0-173.036,70.27-183.552,162.482l11.984-5.778L280.278,307.62Z" transform="translate(-78.704 -106.752)" fill="#407bff"/>
      <path id="Trazado_124" data-name="Trazado 124" d="M349.377,129.1a200.775,200.775,0,0,0-79.615-16.573c-96.616,0-173.036,70.27-183.552,162.482l11.984-5.778L280.278,307.62Z" transform="translate(-78.704 -106.752)" fill="#fff" opacity="0.4"/>
      <path id="Trazado_125" data-name="Trazado 125" d="M355.834,125.993a200.663,200.663,0,0,0-79.652-16.573c-96.616,0-173.036,70.27-183.552,162.482L286.754,304.51Z" transform="translate(-73.195 -109.42)" fill="#407bff"/>
      <path id="Trazado_126" data-name="Trazado 126" d="M355.834,125.993a200.663,200.663,0,0,0-79.652-16.573c-96.616,0-173.036,70.27-183.552,162.482L286.754,304.51Z" transform="translate(-73.195 -109.42)" fill="#fff" opacity="0.6"/>
      <path id="Trazado_127" data-name="Trazado 127" d="M279.918,116.833,210.8,295.349l171.7,102.19,11.984-5.778s13.266-62,11.408-96.486c-4.18-76.921-114.025-184.3-114.025-184.3Z" transform="translate(28.195 -108.081)" fill="#407bff"/>
      <path id="Trazado_128" data-name="Trazado 128" d="M279.918,116.833,210.8,295.349l171.7,102.19,11.984-5.778s13.266-62,11.408-96.486c-4.18-76.921-114.025-184.3-114.025-184.3Z" transform="translate(28.195 -108.081)" fill="#fff" opacity="0.1"/>
      <path id="Trazado_129" data-name="Trazado 129" d="M286.339,111l-69.1,178.554,171.716,102.19a186.878,186.878,0,0,0,23.374-102.19C408.019,209.827,356.479,141.3,286.339,111Z" transform="translate(33.72 -108.064)" fill="#407bff"/>
      <path id="Trazado_130" data-name="Trazado 130" d="M286.339,111l-69.1,178.554,171.716,102.19a186.878,186.878,0,0,0,23.374-102.19C408.019,209.827,356.479,141.3,286.339,111Z" transform="translate(33.72 -108.064)" fill="#fff" opacity="0.2"/>
      <path id="Trazado_131" data-name="Trazado 131" d="M378.336,369.854a.408.408,0,0,1-.242,0L224.643,278.459a.465.465,0,0,1-.186-.576l61.314-158.6a.465.465,0,0,1,.65-.26,200.664,200.664,0,0,1,76.68,68.021A193.23,193.23,0,0,1,395.449,283.4a178.367,178.367,0,0,1-16.722,86.248.464.464,0,0,1-.3.26ZM225.5,277.753l152.672,90.931a177.366,177.366,0,0,0,16.406-85.357c-3.716-68.932-45.131-131.491-108.061-163.355Z" transform="translate(39.881 -101.224)" fill="#fafafa" opacity="0.4"/>
      <path id="Trazado_132" data-name="Trazado 132" d="M274.025,287.538h0L99.5,258.237a.5.5,0,0,1-.3-.186.483.483,0,0,1,0-.353A171.456,171.456,0,0,1,157.9,155.23a175.953,175.953,0,0,1,112.725-40.058,188.881,188.881,0,0,1,65.456,11.7.372.372,0,0,1,.262.242.5.5,0,0,1,0,.372L274.508,287.278A.464.464,0,0,1,274.025,287.538ZM100.134,257.4l173.593,29.152,61.518-158.97a188.066,188.066,0,0,0-64.7-11.482C184.8,116.1,114.775,174.181,100.134,257.4Z" transform="translate(-67.582 -104.488)" fill="#fafafa" opacity="0.4"/>
      <path id="Trazado_133" data-name="Trazado 133" d="M280.878,235.256,98.794,196.87l-12.04,5.816a193.683,193.683,0,0,0-.948,32.608c5.834,107.764,97.917,195.09,205.662,195.09,70.232,0,129.781-37.16,161.107-92.9Z" transform="translate(-79.304 -34.388)" fill="#407bff"/>
      <path id="Trazado_134" data-name="Trazado 134" d="M280.878,235.256,98.794,196.87l-12.04,5.816a193.683,193.683,0,0,0-.948,32.608c5.834,107.764,97.917,195.09,205.662,195.09,70.232,0,129.781-37.16,161.107-92.9Z" transform="translate(-79.304 -34.388)" opacity="0.2"/>
      <path id="Trazado_135" data-name="Trazado 135" d="M287.331,229.478,93.207,196.87a195.628,195.628,0,0,0-.966,32.608c5.853,107.764,97.917,195.09,205.662,195.09,70.251,0,129.8-37.16,161.126-92.9Z" transform="translate(-73.772 -34.388)" fill="#407bff"/>
      <path id="Trazado_136" data-name="Trazado 136" d="M287.331,229.478,93.207,196.87a195.628,195.628,0,0,0-.966,32.608c5.853,107.764,97.917,195.09,205.662,195.09,70.251,0,129.8-37.16,161.126-92.9Z" transform="translate(-73.772 -34.388)" opacity="0.1"/>
      <path id="Trazado_137" data-name="Trazado 137" d="M293,408.1c-101.986,0-189.516-83-195.09-184.982a186.045,186.045,0,0,1,0-19.044.39.39,0,0,1,.167-.334.427.427,0,0,1,.372-.111l180.1,30.248h.149l160.271,95.464a.465.465,0,0,1,.223.3.5.5,0,0,1,0,.353,170.007,170.007,0,0,1-62.3,57.431A178.254,178.254,0,0,1,293,408.1ZM98.86,204.626c-.279,6.131-.26,12.319,0,18.431,5.574,101.5,92.566,184.109,194.068,184.109,60.292,0,113.171-28.149,145.128-77.218L278.269,234.782Z" transform="translate(-68.872 -28.6)" fill="#fafafa" opacity="0.4"/>
      <path id="Trazado_138" data-name="Trazado 138" d="M84.938,241.965a208.387,208.387,0,0,1-2.768-24.154l1.858-.112a203.652,203.652,0,0,0,2.731,24.005Z" transform="translate(-82.17 -16.516)" fill="#407bff"/>
      <path id="Trazado_139" data-name="Trazado 139" d="M84.938,241.965a208.387,208.387,0,0,1-2.768-24.154l1.858-.112a203.652,203.652,0,0,0,2.731,24.005Z" transform="translate(-82.17 -16.516)" opacity="0.2"/>
      <path id="Trazado_140" data-name="Trazado 140" d="M87.3,246.474c-1.04-3.716-1.988-7.655-2.806-11.464l1.858-.39c.818,3.716,1.747,7.6,2.768,11.371Z" transform="translate(-80.179 -1.998)" fill="#407bff"/>
      <path id="Trazado_141" data-name="Trazado 141" d="M87.3,246.474c-1.04-3.716-1.988-7.655-2.806-11.464l1.858-.39c.818,3.716,1.747,7.6,2.768,11.371Z" transform="translate(-80.179 -1.998)" opacity="0.2"/>
      <path id="Trazado_142" data-name="Trazado 142" d="M333.546,233.777,320.28,230.21l2.88,17.038s11.966.539,13.006-5.778Z" transform="translate(122.128 -5.782)" fill="#e4897b"/>
      <path id="Trazado_143" data-name="Trazado 143" d="M314.66,234.539l3.047,13.991,10.275-1.282L325.1,230.21Z" transform="translate(117.306 -5.782)" fill="#e4897b"/>
    </g>
  </g>
</svg>
